<?xml version="1.0" encoding="UTF-8"?>
<!DOCTYPE svg PUBLIC "-//W3C//DTD SVG 1.1//EN" "http://www.w3.org/Graphics/SVG/1.1/DTD/svg11.dtd">
<!-- Creator: CorelDRAW X5 -->
<svg xmlns="http://www.w3.org/2000/svg" xml:space="preserve" width="34.3541mm" height="33.3675mm" style="shape-rendering:geometricPrecision; text-rendering:geometricPrecision; image-rendering:optimizeQuality; fill-rule:evenodd; clip-rule:evenodd"
viewBox="0 0 7.27643 7.06746"
 xmlns:xlink="http://www.w3.org/1999/xlink">
 <defs>
  <style type="text/css">
   <![CDATA[
    .str0 {stroke:#00A0E3;stroke-width:0.143457}
    .fil0 {fill:none}
   ]]>
  </style>
 </defs>
 <g id="Layer_x0020_1">
  <metadata id="CorelCorpID_0Corel-Layer"/>
  <polygon id="_343613616" class="fil0 str0" points="3.62645,0.0824987 4.40433,0.524327 5.18229,0.966156 5.18229,1.84981 5.18229,2.73351 4.40433,3.17534 3.62645,3.61717 2.84857,3.17534 2.07062,2.73351 2.07062,1.84981 2.07062,0.966156 2.84857,0.524327 "/>
  <polygon id="_343614168" class="fil0 str0" points="5.64892,3.44143 6.42681,3.88326 7.20469,4.32509 7.20469,5.20879 7.20469,6.09245 6.42681,6.53428 5.64892,6.9761 4.87098,6.53428 4.0931,6.09245 4.0931,5.20879 4.0931,4.32509 4.87098,3.88326 "/>
  <polygon id="_343614624" class="fil0 str0" points="1.62765,3.45031 2.40553,3.89212 3.18341,4.33401 3.18341,5.21767 3.18341,6.10132 2.40553,6.54313 1.62765,6.98496 0.849683,6.54313 0.0717389,6.10132 0.0717389,5.21767 0.0717389,4.33401 0.849683,3.89212 "/>
 </g>
</svg>
